<svg xmlns="http://www.w3.org/2000/svg" version="1.1" viewBox="-10 0 1020 1000" width="1.75em" stroke="#000000" paint-order="stroke markers fill" style="vertical-align: text-bottom;"><g transform="matrix(1.33 0 0 1.33 104.757 57.577)"><path fill="currentColor" d="M467.9 201.48c-65.238 11.434-103.04-10.023-117.92-21.566-14.867 11.547-52.605 33.02-117.91 21.566-.578 15.438-1.383 39.766-1.418 41.613 1.29 80.059 36.191 149.7 95.762 190.75 7.219 4.973 15.047 9.703 23.25 14.062.191.102.45.094.637 0 8.238-4.375 16.055-9.102 23.238-14.062 59.574-41.055 94.473-110.68 95.77-191.05-.024-1.629-.828-25.887-1.406-41.305z"></path></g><g transform="matrix(1.33 0 0 1.33 104.248 56.91)"><path fill="currentColor" d="m146.21 90.41 42.816 47.73-30.891 30.891a2.438 2.438 0 0 0 0 3.437l5.606 5.606a2.436 2.436 0 0 0 2.918.398l33.875-19.227 16.992 17.445 1.148-.93 5.324 1.231c22.152 5.117 40.812 6.16 56.285 4.93l-51.89-50.535 19.226-33.875a2.43 2.43 0 0 0-.398-2.918l-5.606-5.606a2.438 2.438 0 0 0-3.437 0l-30.891 30.891-47.523-42.633c2.957-7.918 1.304-17.168-5.063-23.535-8.695-8.695-22.793-8.695-31.488 0-8.695 8.696-8.695 22.793 0 31.488 6.235 6.204 15.2 7.891 22.996 5.211z"></path></g><g transform="matrix(1.33 0 0 1.33 105.258 56.92)"><path fill="currentColor" d="m475.97 176.98 5.324-1.23 1.164.94 17-17.46 33.875 19.227c.953.539 2.145.379 2.918-.399l5.606-5.605a2.438 2.438 0 0 0 0-3.438l-30.891-30.89 42.816-47.73c7.797 2.683 16.762.992 22.98-5.231 8.695-8.695 8.695-22.793 0-31.488s-22.793-8.695-31.488 0c-6.367 6.367-8.024 15.617-5.063 23.535l-47.523 42.633-30.89-30.891a2.438 2.438 0 0 0-3.438 0l-5.606 5.605a2.436 2.436 0 0 0-.398 2.918l19.227 33.875-51.891 50.535c15.484 1.254 34.133.215 56.277-4.906z"></path></g><g transform="matrix(1.33 0 0 1.33 104.223 57.993)"><path fill="currentColor" d="M158.56 436.25a36.877 36.877 0 0 0-8.238 12.066l-34.41 64.512 66.613-32.305a36.845 36.845 0 0 0 12.066-8.238l67.305-69.11c-10.074-12.991-18.82-27.07-26.176-42.073z"></path></g><g transform="matrix(1.33 0 0 1.33 105.29 57.986)"><path fill="currentColor" d="M549.68 448.31a36.845 36.845 0 0 0-8.238-12.066l-77.188-75.168c-7.352 15.004-16.102 29.086-26.168 42.078l67.324 69.125a36.877 36.877 0 0 0 12.066 8.238l66.613 32.305z"></path></g></svg>
